<svg xmlns:xlink="http://www.w3.org/1999/xlink" width="40" height="40" viewBox="0 0 40 40" fill="none" xmlns="http://www.w3.org/2000/svg" class="css-br0wi4"><circle cx="20" cy="20" r="20" fill="#F7931A"></circle><path d="M27.2408 21.0875C27.0064 20.5484 26.6455 20.075 25.9236 19.6766C25.5505 19.4656 25.1497 19.3078 24.733 19.2078C25.0134 19.0775 25.2713 18.9035 25.497 18.6922C25.8289 18.3955 26.0804 18.0198 26.2283 17.6C26.3644 17.1733 26.42 16.7251 26.3923 16.2781C26.3408 15.4906 26.1861 14.7266 25.7736 14.1781C25.3611 13.6297 24.7798 13.2078 24.0111 12.9125C23.4205 12.6875 22.8158 12.5469 21.8783 12.4953V9.5H20.0033V12.5H18.5033V9.5H16.5814V12.5H12.5V14.75H13.8064C14.2142 14.75 14.4908 14.7875 14.6314 14.8578C14.7623 14.9138 14.8698 15.0131 14.9361 15.1391C14.997 15.2563 15.0252 15.5328 15.0252 15.9594V24.0781C15.0252 24.5 14.997 24.7719 14.9361 24.8937C14.8752 25.0156 14.8423 25.1234 14.697 25.1891C14.5517 25.2547 14.547 25.25 14.1439 25.25H12.9064L12.5 27.5H16.5781V30.5H18.5V27.5H20V30.5H21.875V27.4813C23.0938 27.4203 23.9609 27.2609 24.6594 26.9984C25.5641 26.6609 26.2578 26.1687 26.7547 25.5219C27.2516 24.875 27.4109 23.8859 27.4545 23.1219C27.4859 22.4422 27.4531 21.5656 27.2408 21.0875ZM18.5 15.0312H20V18.5H18.5V15.0312ZM18.5 24.9688V20.75H20V24.9688H18.5ZM21.875 15.2141C22.1562 15.3312 22.3391 15.5656 22.5219 15.8094C22.7234 16.0766 22.8266 16.4328 22.8266 16.8125C22.8266 17.1781 22.6906 17.4922 22.475 17.7734C22.2969 18.0031 22.1562 18.1625 21.875 18.2938V15.2141ZM23.225 23.9656C22.8594 24.2891 22.6484 24.4391 22.1891 24.6125C22.0863 24.6487 21.9814 24.6784 21.875 24.7016V20.8203C22.0584 20.8474 22.2368 20.9011 22.4047 20.9797C22.7703 21.1344 23.1172 21.3031 23.3328 21.5984C23.5719 21.9376 23.7026 22.3413 23.7078 22.7562C23.7064 23.2672 23.5752 23.6562 23.2236 23.9656H23.225Z" fill="#FFFFFF"></path></svg>