<svg xmlns:xlink="http://www.w3.org/1999/xlink" width="24" height="24" viewBox="0 0 24 24" fill="none" xmlns="http://www.w3.org/2000/svg" class="css-1qvg3x"><path d="M7 24C8.10457 24 9 23.1046 9 22C9 20.8954 8.10457 20 7 20C5.89543 20 5 20.8954 5 22C5 23.1046 5.89543 24 7 24Z" fill="#365314"></path><path d="M17 24C18.1046 24 19 23.1046 19 22C19 20.8954 18.1046 20 17 20C15.8954 20 15 20.8954 15 22C15 23.1046 15.8954 24 17 24Z" fill="#365314"></path><path d="M22.813 9.583C21.9022 10.8202 20.5516 11.6609 19.0394 11.9319C17.5272 12.2029 15.9687 11.8835 14.6849 11.0395C13.4012 10.1955 12.4902 8.89131 12.1395 7.39559C11.7888 5.89986 12.0252 4.3266 12.8 3H4.242L4.2 2.648C4.11382 1.9186 3.76306 1.24615 3.21419 0.758104C2.66532 0.270054 1.95647 0.000312836 1.222 0L0 0V2H1.222C1.46693 2.00003 1.70334 2.08996 1.88637 2.25272C2.06941 2.41547 2.18634 2.63975 2.215 2.883L3.8 16.351C3.88595 17.0806 4.23662 17.7533 4.78551 18.2415C5.3344 18.7298 6.04337 18.9997 6.778 19H20V17H6.778C6.53291 16.9999 6.29638 16.9099 6.11333 16.7469C5.93027 16.5839 5.81343 16.3594 5.785 16.116L5.654 15H21.836L22.813 9.583Z" fill="#365314"></path><path d="M21 5H19V3H17V5H15V7H17V9H19V7H21V5Z" fill="#365314"></path></svg>