<svg xmlns:xlink="http://www.w3.org/1999/xlink" width="25" height="24" viewBox="0 0 25 24" fill="none" xmlns="http://www.w3.org/2000/svg" class="css-1w7wlpl"><g clip-path="url(#clip0_5298_24801)" fill="none"><path d="M9.6665 22C9.6665 23.1 8.7665 24 7.6665 24C6.5665 24 5.6665 23.1 5.6665 22C5.6665 20.9 6.5665 20 7.6665 20C8.7665 20 9.6665 20.9 9.6665 22ZM17.6665 20C16.5665 20 15.6665 20.9 15.6665 22C15.6665 23.1 16.5665 24 17.6665 24C18.7665 24 19.6665 23.1 19.6665 22C19.6665 20.9 18.7665 20 17.6665 20ZM23.4765 9.58C22.3865 11.05 20.6365 12 18.6665 12C15.3565 12 12.6665 9.31 12.6665 6C12.6665 4.91 12.9565 3.88 13.4665 3H4.9065L4.8665 2.65C4.6865 1.14 3.4065 0 1.8865 0H0.666504V2H1.8865C2.3965 2 2.8165 2.38 2.8765 2.88L4.4565 16.35C4.6365 17.86 5.9165 19 7.4365 19H20.6565V17H7.4465C6.9365 17 6.5165 16.62 6.4565 16.12L6.3265 15H22.5065L23.4865 9.58H23.4765ZM21.6665 5H15.6665V7H21.6665V5Z" fill="#14532D"></path></g><defs><clipPath id="clip0_5298_24801"><rect width="24" height="24" fill="white" transform="translate(0.666504)"></rect></clipPath></defs></svg>