<svg xmlns:xlink="http://www.w3.org/1999/xlink" width="460" height="460" viewBox="0 0 460 460" fill="none" xmlns="http://www.w3.org/2000/svg" class="css-1l1lifb"><g clip-path="url(#clip0_1777_3)" fill="none"><circle cx="230" cy="230" r="230" fill="#0088CC"></circle><path fill-rule="evenodd" clip-rule="evenodd" d="M147.617 125H313.67C319.545 125 325.415 125.862 331.55 128.723C338.905 132.151 342.804 137.554 345.536 141.55C345.749 141.86 345.948 142.181 346.132 142.509C349.345 148.227 351 154.402 351 161.043C351 167.353 349.499 174.228 346.132 180.22C346.099 180.278 346.067 180.334 346.034 180.391L241.124 360.604C238.811 364.577 234.553 367.017 229.955 367C225.356 366.983 221.115 364.516 218.829 360.525L115.845 180.696C115.816 180.647 115.786 180.598 115.756 180.549C113.399 176.666 109.755 170.659 109.118 162.909C108.532 155.782 110.134 148.64 113.715 142.448C117.296 136.256 122.688 131.305 129.172 128.275C136.126 125.026 143.173 125 147.617 125ZM217.128 150.745H147.617C143.05 150.745 141.296 151.025 140.071 151.598C138.377 152.39 136.953 153.691 136.001 155.336C135.05 156.983 134.62 158.89 134.777 160.799C134.867 161.895 135.312 163.146 137.943 167.486C137.999 167.578 138.053 167.669 138.105 167.762L217.128 305.748V150.745ZM242.872 150.745V306.429L323.725 167.543C324.637 165.885 325.255 163.49 325.255 161.043C325.255 159.058 324.845 157.334 323.924 155.556C322.959 154.169 322.371 153.434 321.879 152.93C321.457 152.5 321.132 152.27 320.674 152.056C318.762 151.166 316.806 150.745 313.67 150.745H242.872Z" fill="#FFFFFF"></path></g><defs><clipPath id="clip0_1777_3"><rect width="460" height="460" fill="white"></rect></clipPath></defs></svg>